#!OML:ASF G:\JayActor3\Patient Classification 1\Patient 1\Session 5\male.ASF
:FULLY-SPECIFIED
:DEGREES
887
root -30.4346 18.0834 -4.37734 145.517 92.9313 143.587
lowerback 4.13446 -0.849245 1.63221
upperback 0.0592272 -1.05476 -0.175517
thorax -2.28959 -0.543439 -1.03166
lowerneck -5.77464 0.782232 2.07962
upperneck 13.3187 0.819201 1.11548
head 4.95366 0.629183 0.0570893
rclavicle -1.2101e-014 -7.95139e-016
rhumerus -35.675 -7.59753 -84.0718
rradius 25.2814
rwrist 2.56542
rhand -21.7519 -9.93233
rfingers 7.12502
rthumb 4.64838 -39.8613
lclavicle -1.2101e-014 -7.95139e-016
lhumerus -35.4014 11.5379 80.0414
lradius 20.6239
lwrist 14.6357
lhand -18.2767 11.7902
lfingers 7.12502
lthumb 8.00329 41.6187
rfemur -27.6824 7.8859 18.8611
rtibia 29.8526
rfoot 15.6924 -13.2786
rtoes 7.79382
lfemur 18.4177 5.65138 -19.6285
ltibia -1.90833e-014
lfoot 18.1605 -8.03206
ltoes -30.019
888
root -30.5503 18.0926 -4.39967 149.163 93.0256 147.136
lowerback 4.1088 -0.797983 1.46648
upperback 0.0818817 -0.995621 -0.20759
thorax -2.24779 -0.51186 -0.975861
lowerneck -5.84016 0.787597 2.07107
upperneck 13.467 0.823912 1.13409
head 5.01046 0.63511 0.0654633
rclavicle 6.8705e-015 4.96962e-015
rhumerus -35.6461 -7.59705 -84.1036
rradius 25.2606
rwrist 2.61987
rhand -21.7294 -9.91772
rfingers 7.12502
rthumb 4.67009 -39.8462
lclavicle 6.8705e-015 4.96962e-015
lhumerus -35.3774 11.5223 80.0708
lradius 20.5891
lwrist 14.4631
lhand -18.2692 11.8629
lfingers 7.12502
lthumb 8.01049 41.6911
rfemur -28.0143 8.05109 18.5895
rtibia 29.5602
rfoot 15.5836 -13.2218
rtoes 7.11389
lfemur 17.979 6.0248 -19.7628
ltibia 3.18055e-014
lfoot 17.8037 -8.20556
ltoes -29.9312
889
root -30.6631 18.0997 -4.42106 152.372 93.1226 150.253
lowerback 4.06882 -0.753008 1.30248
upperback 0.097724 -0.944782 -0.238428
thorax -2.20546 -0.484564 -0.91931
lowerneck -5.9087 0.792581 2.06798
upperneck 13.6407 0.828465 1.14703
head 5.07574 0.641421 0.0713253
rclavicle -9.30561e-015 -7.95139e-016
rhumerus -35.6482 -7.58234 -84.1419
rradius 25.2589
rwrist 2.641
rhand -21.7008 -9.91328
rfingers 7.12502
rthumb 4.69763 -39.8412
lclavicle -9.30561e-015 -7.95139e-016
lhumerus -35.3868 11.485 80.0986
lradius 20.5608
lwrist 14.3173
lhand -18.2248 11.9317
lfingers 7.12502
lthumb 8.05333 41.7583
rfemur -28.2963 8.19516 18.3494
rtibia 29.3525
rfoot 15.1258 -12.839
rtoes 6.1086
lfemur 17.5524 6.38143 -19.8807
ltibia -3.18055e-014
lfoot 17.5044 -8.36252
ltoes -29.7392
890
root -30.7728 18.1043 -4.44163 155 93.2137 152.806
lowerback 4.02964 -0.715482 1.15273
upperback 0.110424 -0.902978 -0.269477
thorax -2.1675 -0.462029 -0.870301
lowerneck -5.98105 0.797279 2.06521
upperneck 13.8321 0.831721 1.16729
head 5.14722 0.64801 0.0794593
rclavicle -2.23633e-016 7.35503e-015
rhumerus -35.6842 -7.55579 -84.1889
rradius 25.2796
rwrist 2.62395
rhand -21.6651 -9.89747
rfingers 7.12502
rthumb 4.73216 -39.8246
lclavicle -2.23633e-016 7.35503e-015
lhumerus -35.4247 11.4228 80.1227
lradius 20.5378
lwrist 14.1984
lhand -18.1474 11.988
lfingers 7.12502
lthumb 8.1281 41.8117
rfemur -28.5055 8.26777 18.1686
rtibia 29.2443
rfoot 14.2955 -12.14
rtoes 4.79283
lfemur 17.1512 6.70012 -19.9749
ltibia -6.36111e-014
lfoot 17.2586 -8.51868
ltoes -29.4719
891
root -30.8798 18.1063 -4.46144 156.964 93.2931 154.72
lowerback 4.00515 -0.688151 1.02237
upperback 0.122659 -0.873394 -0.295703
thorax -2.13891 -0.445848 -0.826255
lowerneck -6.05144 0.799968 2.05796
upperneck 14.0226 0.832207 1.19217
head 5.21811 0.653359 0.0896091
rclavicle -6.08778e-015 -1.98785e-016
rhumerus -35.7468 -7.51005 -84.2437
rradius 25.3213
rwrist 2.56711
rhand -21.6314 -9.89077
rfingers 7.12502
rthumb 4.76466 -39.8172
lclavicle -6.08778e-015 -1.98785e-016
lhumerus -35.4859 11.3449 80.1447
lradius 20.5205
lwrist 14.1068
lhand -18.0368 12.0454
lfingers 7.12502
lthumb 8.2348 41.8649
rfemur -28.6303 8.22685 18.0701
rtibia 29.243
rfoot 13.0994 -11.1781
rtoes 3.24993
lfemur 16.7851 6.99309 -20.0301
ltibia -3.18055e-014
lfoot 17.065 -8.70323
ltoes -29.1536
892
root -30.9842 18.1052 -4.48047 158.338 93.3572 156.075
lowerback 4.00184 -0.669022 0.913719
upperback 0.133853 -0.853375 -0.320059
thorax -2.12387 -0.43473 -0.791619
lowerneck -6.09812 0.798217 2.04987
upperneck 14.1928 0.826684 1.22356
head 5.27869 0.655889 0.101374
rclavicle 1.07095e-014 6.55989e-015
rhumerus -35.8372 -7.46224 -84.3019
rradius 25.3737
rwrist 2.49085
rhand -21.5939 -9.87696
rfingers 7.12502
rthumb 4.80086 -39.8026
lclavicle 1.07095e-014 6.55989e-015
lhumerus -35.5723 11.2495 80.1592
lradius 20.5061
lwrist 14.0418
lhand -17.9184 12.0949
lfingers 7.12502
lthumb 8.34908 41.9099
rfemur -28.6552 8.05372 18.061
rtibia 29.3476
rfoot 11.5604 -10.032
rtoes 1.66842
lfemur 16.4609 7.25387 -20.0482
ltibia -3.18055e-015
lfoot 16.9231 -8.91483
ltoes -28.8076
893
root -31.0863 18.1017 -4.49892 159.135 93.4084 156.881
lowerback 4.01702 -0.657451 0.834656
upperback 0.146537 -0.841824 -0.342725
thorax -2.1183 -0.428153 -0.771134
lowerneck -6.11746 0.791738 2.03763
upperneck 14.3331 0.814773 1.26409
head 5.32529 0.655221 0.116019
rclavicle 1.63997e-015 -2.98177e-015
rhumerus -35.9513 -7.40333 -84.37
rradius 25.4406
rwrist 2.39642
rhand -21.5593 -9.86744
rfingers 7.12502
rthumb 4.83431 -39.7923
lclavicle 1.63997e-015 -2.98177e-015
lhumerus -35.675 11.1525 80.1581
lradius 20.4873
lwrist 13.9949
lhand -17.7983 12.1448
lfingers 7.12502
lthumb 8.46501 41.9551
rfemur -28.5834 7.76558 18.1385
rtibia 29.5535
rfoot 9.76448 -8.81609
rtoes 0.291737
lfemur 16.1775 7.48676 -20.0278
ltibia -4.45278e-014
lfoot 16.8312 -9.15878
ltoes -28.4613
894
root -31.1865 18.0961 -4.51708 159.44 93.4529 157.222
lowerback 4.05754 -0.653734 0.786822
upperback 0.159192 -0.83903 -0.362205
thorax -2.12756 -0.426285 -0.764091
lowerneck -6.11487 0.783306 2.01404
upperneck 14.4437 0.800546 1.31537
head 5.35886 0.653026 0.135507
rclavicle 1.20513e-014 -3.97569e-016
rhumerus -36.0851 -7.32693 -84.4462
rradius 25.5184
rwrist 2.30203
rhand -21.5226 -9.86906
rfingers 7.12502
rthumb 4.86976 -39.7931
lclavicle 1.20513e-014 -3.97569e-016
lhumerus -35.7908 11.0751 80.1342
lradius 20.4572
lwrist 13.9546
lhand -17.685 12.1901
lfingers 7.12502
lthumb 8.57436 41.996
rfemur -28.4235 7.38842 18.2888
rtibia 29.857
rfoot 7.84448 -7.62176
rtoes -0.842576
lfemur 15.929 7.70167 -19.975
ltibia 6.36111e-015
lfoot 16.7849 -9.42495
ltoes -28.1408
895
root -31.2847 18.0892 -4.53528 159.39 93.4896 157.229
lowerback 4.11022 -0.655124 0.770501
upperback 0.173729 -0.841551 -0.384142
thorax -2.1423 -0.427388 -0.776805
lowerneck -6.09751 0.772275 1.98861
upperneck 14.5271 0.782228 1.37404
head 5.38144 0.648734 0.157157
rclavicle -1.635e-014 -4.77083e-015
rhumerus -36.2315 -7.24405 -84.5313
rradius 25.603
rwrist 2.21503
rhand -21.4904 -9.87085
rfingers 7.12502
rthumb 4.90087 -39.7942
lclavicle -1.635e-014 -4.77083e-015
lhumerus -35.9055 11.0278 80.0786
lradius 20.4023
lwrist 13.9081
lhand -17.5785 12.23
lfingers 7.12502
lthumb 8.67714 42.0316
rfemur -28.1923 6.9414 18.4902
rtibia 30.2585
rfoot 5.96648 -6.51556
rtoes -1.69458
lfemur 15.7044 7.90239 -19.9038
ltibia -2.54444e-014
lfoot 16.7891 -9.69053
ltoes -27.8194
896
root -31.3812 18.0814 -4.5536 159.076 93.5308 156.988
lowerback 4.17111 -0.661695 0.783352
upperback 0.194712 -0.849491 -0.405188
thorax -2.15554 -0.43142 -0.80459
lowerneck -6.08479 0.763328 1.95666
upperneck 14.5923 0.766528 1.43558
head 5.3991 0.645137 0.180885
rclavicle -1.30204e-014 7.95139e-016
rhumerus -36.3756 -7.14739 -84.6239
rradius 25.6909
rwrist 2.14951
rhand -21.458 -9.87489
rfingers 7.12502
rthumb 4.93209 -39.7975
lclavicle -1.30204e-014 7.95139e-016
lhumerus -36.0069 11.036 79.9875
lradius 20.3171
lwrist 13.8422
lhand -17.4806 12.2633
lfingers 7.12502
lthumb 8.7716 42.061
rfemur -27.9069 6.46114 18.7285
rtibia 30.7642
rfoot 4.26554 -5.5514
rtoes -2.26599
lfemur 15.4976 8.1034 -19.8193
ltibia -1.90833e-014
lfoot 16.8365 -9.94502
ltoes -27.5252
897
root -31.4764 18.0733 -4.57172 158.617 93.5684 156.605
lowerback 4.22879 -0.671608 0.813326
upperback 0.217208 -0.861094 -0.427395
thorax -2.16579 -0.437428 -0.842988
lowerneck -6.07389 0.756119 1.92482
upperneck 14.6414 0.753047 1.49554
head 5.4121 0.642152 0.204178
rclavicle -1.09332e-015 -1.19271e-015
rhumerus -36.5137 -7.06015 -84.715
rradius 25.7725
rwrist 2.11728
rhand -21.4289 -9.89026
rfingers 7.12502
rthumb 4.9602 -39.8122
lclavicle -1.09332e-015 -1.19271e-015
lhumerus -36.093 11.0988 79.8604
lradius 20.1961
lwrist 13.746
lhand -17.3889 12.2719
lfingers 7.12502
lthumb 8.86009 42.0659
rfemur -27.5968 5.98293 18.9769
rtibia 31.3863
rfoot 2.8213 -4.75771
rtoes -2.65103
lfemur 15.2864 8.29971 -19.7351
ltibia 3.18055e-014
lfoot 16.9414 -10.1505
ltoes -27.1789
898
root -31.5701 18.0646 -4.58935 158.246 93.6113 156.314
lowerback 4.27623 -0.682428 0.842166
upperback 0.250369 -0.873931 -0.449305
thorax -2.15936 -0.443885 -0.880556
lowerneck -6.09087 0.753468 1.89353
upperneck 14.6829 0.745748 1.54484
head 5.42759 0.641175 0.224547
rclavicle -2.73329e-015 -3.57812e-015
rhumerus -36.6294 -6.97707 -84.8023
rradius 25.8436
rwrist 2.11829
rhand -21.3981 -9.8836
rfingers 7.12502
rthumb 4.98994 -39.8048
lclavicle -2.73329e-015 -3.57812e-015
lhumerus -36.1479 11.2361 79.6975
lradius 20.0353
lwrist 13.6038
lhand -17.3198 12.2609
lfingers 7.12502
lthumb 8.92675 42.052
rfemur -27.2752 5.55463 19.2129
rtibia 32.1381
rfoot 1.65681 -4.13101
rtoes -2.93708
lfemur 15.0738 8.50543 -19.663
ltibia -4.45278e-014
lfoot 17.0937 -10.3057
ltoes -26.822
899
root -31.6625 18.0564 -4.60602 158.071 93.661 156.215
lowerback 4.30754 -0.688225 0.86238
upperback 0.28441 -0.880665 -0.474547
thorax -2.14279 -0.447169 -0.917272
lowerneck -6.11274 0.753016 1.8642
upperneck 14.717 0.741594 1.5891
head 5.44165 0.641306 0.24321
rclavicle -8.87077e-015 3.97569e-016
rhumerus -36.7358 -6.92032 -84.8804
rradius 25.9036
rwrist 2.14996
rhand -21.3718 -9.87685
rfingers 7.12502
rthumb 5.01536 -39.7975
lclavicle -8.87077e-015 3.97569e-016
lhumerus -36.1883 11.428 79.4984
lradius 19.8424
lwrist 13.4124
lhand -17.2671 12.2306
lfingers 7.12502
lthumb 8.97765 42.0196
rfemur -26.9704 5.21709 19.423
rtibia 33.0325
rfoot 0.766728 -3.6566
rtoes -3.44229
lfemur 14.8495 8.72421 -19.6087
ltibia 3.49861e-014
lfoot 17.2828 -10.4214
ltoes -26.484
900
root -31.7539 18.048 -4.62127 158.115 93.7082 156.329
lowerback 4.32286 -0.691538 0.864633
upperback 0.318016 -0.885172 -0.504312
thorax -2.11746 -0.449145 -0.948882
lowerneck -6.14059 0.751959 1.84084
upperneck 14.7447 0.737016 1.62315
head 5.4548 0.64068 0.257675
rclavicle -1.963e-014 -1.19271e-015
rhumerus -36.8301 -6.89043 -84.951
rradius 25.9454
rwrist 2.20471
rhand -21.3514 -9.86365
rfingers 7.12502
rthumb 5.03509 -39.7838
lclavicle -1.963e-014 -1.19271e-015
lhumerus -36.217 11.6665 79.2646
lradius 19.6231
lwrist 13.171
lhand -17.246 12.2063
lfingers 7.12502
lthumb 8.99799 41.9944
rfemur -26.6838 4.99041 19.5998
rtibia 34.0766
rfoot 0.0659379 -3.32683
rtoes -4.18154
lfemur 14.612 8.94743 -19.5758
ltibia -2.8625e-014
lfoot 17.5071 -10.4855
ltoes -26.1176
901
root -31.8442 18.0395 -4.63519 158.428 93.7554 156.703
lowerback 4.313 -0.688435 0.849357
upperback 0.350902 -0.882308 -0.540921
thorax -2.07843 -0.447254 -0.978429
lowerneck -6.15189 0.748823 1.82402
upperneck 14.755 0.73066 1.64844
head 5.45977 0.638601 0.268039
rclavicle -3.57812e-015 3.97569e-016
rhumerus -36.92 -6.89082 -85.0147
rradius 25.9754
rwrist 2.26621
rhand -21.3342 -9.84427
rfingers 7.12502
rthumb 5.05162 -39.7641
lclavicle -3.57812e-015 3.97569e-016
lhumerus -36.2424 11.9377 78.9996
lradius 19.3868
lwrist 12.8857
lhand -17.2558 12.1833
lfingers 7.12502
lthumb 8.98848 41.9718
rfemur -26.4172 4.87137 19.7461
rtibia 35.2684
rfoot -0.497727 -3.1235
rtoes -5.1466
lfemur 12.7367 9.15099 -19.5677
ltibia 2.98587
lfoot 16.3863 -10.7687
ltoes -25.7717
